<svg width="919" height="1045" xmlns="http://www.w3.org/2000/svg" data-spm-anchor-id="a313x.7781069.0.i1" p-id="1592" version="1.1" class="icon" t="1559720810975">
 <defs>
  <style type="text/css"/>
 </defs>
 <g>
  <title>background</title>
  <rect fill="none" id="canvas_background" height="1047" width="921" y="-1" x="-1"/>
 </g>
 <g>
  <title>Layer 1</title>
  <path id="svg_1" p-id="1593" d="m640.355084,53.133352c6.39147,-4.66558 13.44674,-4.22936 24.52275,-2.1621c-8.85702,2.65521 -14.41399,4.30524 -19.97096,5.97422c-1.72589,-1.02415 -4.13454,-1.21381 -4.55179,-3.81212z"/>
  <path id="svg_2" p-id="1594" d="m640.355084,53.133352c1.51727,1.27071 3.03453,2.54142 4.55179,3.81212c-3.96385,1.40347 -7.92769,2.78797 -11.89154,4.19144c-2.86383,-1.27071 -5.72766,-2.56038 -8.57253,-3.83109c4.47592,-4.51385 10.33635,-3.79315 15.91228,-4.17247z"/>
  <path id="svg_3" p-id="1595" d="m375.498074,523.541412c55.20936,30.17455 106.64454,35.16255 162.02459,3.35695c-36.98325,56.23351 -119.67402,54.75418 -162.02459,-3.35695z"/>
  <path id="svg_4" class="selected" data-spm-anchor-id="a313x.7781069.0.i0" p-id="1596" d="m849.14928,530.55875c-4.60869,-5.72766 -12.27086,-10.43118 -1.78279,-18.96577c61.27842,-49.86102 58.37665,-155.12106 -36.77463,-192.16121c-7.0932,-2.76901 -12.15706,-5.78456 -13.37087,-14.79331c-11.28463,-82.63387 -60.1215,-139.20877 -127.65862,-182.73522c-7.11216,-4.57075 -20.21751,-6.50526 -20.06578,-14.20536c0.22759,-10.526 13.76915,-12.46051 22.09512,-17.46748c0.8345,-0.49311 1.04312,-2.02933 1.47933,-2.93969c-24.21929,-5.27249 -48.7041,7.87079 -75.19929,1.51726c11.00015,-13.75018 23.53653,-20.12268 35.16255,-27.6521c-0.07587,-7.52941 -4.66558,-4.89317 -8.57253,-3.83108c-15.0209,4.2673 -30.02282,8.5346 -46.33339,13.16224c4.96904,-11.75878 13.82605,-19.6675 13.93985,-31.95732c-19.57268,14.33812 -37.59017,29.77626 -62.70085,31.42628c14.73641,-17.82782 27.42451,-35.59875 31.59698,-60.95599c-36.31946,43.07127 -83.29768,56.15765 -134.14491,60.31115c-70.36302,5.74663 -134.4863,28.65729 -191.04223,71.04579c-50.42999,37.81775 -86.82531,86.2753 -98.43236,149.08994c-3.85005,20.82442 -12.00533,30.40213 -30.34524,39.6764c-66.60779,33.74011 -83.58216,109.71699 -38.29189,167.69536c9.29323,11.89154 8.55356,17.80886 -0.6638,28.94177c-64.5026,77.91139 -85.11839,165.64706 -50.10758,261.87939c31.10387,85.47873 95.41681,141.95881 174.06787,183.0766c99.07719,51.81449 205.15276,69.07334 315.85598,59.87494c111.04459,-9.21736 212.6632,-43.62127 297.95228,-117.66365c66.07676,-57.3525 106.39799,-128.51208 105.54453,-218.20121l-62.20773,-164.16773zm-632.73611,-181.749c31.6918,-69.66128 89.85983,-105.26004 161.11424,-123.31545c31.59697,-8.00356 63.93362,-10.41221 98.75478,-11.01912c65.67847,1.59313 130.73107,12.53638 186.20595,56.30938c21.2227,16.74678 37.49534,37.28671 49.74722,61.14565c8.76219,17.08816 15.11573,35.18151 1.40347,52.17484c-14.64158,18.15025 -36.16773,20.23648 -56.42317,14.8502c-24.20033,-6.4294 -47.88858,-15.17262 -72.58201,-19.68647c-10.12773,-1.85865 -11.81568,-8.17425 -13.56053,-16.2347c-2.95866,-13.57949 -8.32598,-25.71759 -24.61757,-27.06416c-16.68988,-1.36554 -23.68825,10.08979 -27.40555,23.47963c-2.06727,7.39665 -5.25352,9.63461 -12.28982,8.64839c-39.03156,-5.48111 -78.02519,-2.48452 -116.98088,0.89139c-9.82427,0.85346 -13.76915,-1.78278 -16.15884,-11.79671c-3.12935,-13.10535 -11.87258,-22.83479 -27.00726,-21.24167c-15.87435,1.65003 -23.53653,13.73122 -23.66929,27.53831c-0.13276,14.62261 -6.46732,18.90887 -19.0606,21.48822c-14.1864,2.90176 -28.16417,7.37768 -41.80056,12.32775c-17.0692,6.20181 -31.29353,1.4414 -43.75404,-9.9191c-13.01052,-11.83464 -7.66217,-25.92621 -1.91554,-38.57638zm-134.27767,142.0726c-46.44718,-52.93347 -23.08135,-130.52244 48.95066,-155.61416c3.18625,36.09186 9.50185,69.73714 26.7607,100.30997c3.69833,6.54319 2.219,10.37428 -4.17247,14.39502c-19.66751,12.38465 -38.10224,26.59001 -54.75419,42.78678c-7.54837,7.33976 -11.00014,4.70352 -16.7847,-1.87761zm342.2753,487.07898c-131.41384,-11.11394 -231.11691,-71.25441 -282.24863,-198.49578l0,0c1.00518,-5.17765 -7.11217,-10.45014 0.68276,-16.31056c45.36613,31.72973 96.99097,47.03511 150.73997,57.08697c43.01437,8.06046 194.35119,92.83985 237.93453,96.31059c105.14625,8.34494 97.36136,-91.34155 194.01094,-131.94727l0,0c7.757,-3.24315 15.49504,-6.50526 23.25204,-9.74841c4.0966,-1.47933 8.19321,-2.95866 12.30878,-4.43799c-6.82767,41.57297 -29.71936,74.78204 -57.63698,104.17899c-75.84412,79.9028 -171.09024,112.50496 -279.04341,103.36346zm336.66143,-207.56142l0,0l0,0l0,0zm-10.08979,-34.74529c-6.5432,2.80693 -12.15706,7.73803 -18.18818,11.68291c0,0 0,0 0,0c-15.03986,6.75182 -29.73833,14.48985 -45.17647,20.12269c-132.45696,48.26789 -267.28464,48.43858 -403.04164,17.33471c-56.518,-12.95362 -108.52215,-36.98325 -154.24863,-73.39754l0,0l0,0c1.02416,-114.23085 58.35769,-194.91124 157.0366,-243.33086c134.65699,-66.05779 266.45014,-54.86798 386.48452,37.49533c61.506,47.33857 95.30301,112.16358 99.38065,191.38361c0.98622,19.40199 -4.79834,31.23663 -22.24685,38.70915zm21.92443,-276.29338c-5.36731,-3.83109 -8.62943,-6.71388 -4.11557,-14.11054c20.72959,-34.00563 29.60557,-71.69062 31.99526,-112.52393c78.65105,29.20729 96.8013,114.19292 38.31086,167.22122l-66.19055,-40.58675z"/>
 </g>
</svg>